<svg xmlns="http://www.w3.org/2000/svg" xmlns:xlink="http://www.w3.org/1999/xlink" id="Layer_1" width="200" height="200" x="0" y="0" enable-background="new 0 0 200 200" version="1.1" viewBox="0 0 200 200" xml:space="preserve"><g><path fill="#E86130" d="M9.839,67.809c8.63-6.589,21.104-19.013,27.72-27.607s20.249-12.232,30.294-8.084 c10.045,4.148,27.085,8.696,37.867,10.105s20.761,11.348,22.177,22.086s5.981,27.708,10.146,37.712 c4.165,10.004,0.512,23.58-8.117,30.169c-8.63,6.589-21.104,19.013-27.72,27.607c-6.617,8.594-20.249,12.232-30.293,8.084 c-10.045-4.148-27.085-8.696-37.867-10.105c-10.782-1.409-20.761-11.348-22.176-22.086c-1.415-10.738-5.981-27.708-10.146-37.712 C-2.443,87.975,1.21,74.399,9.839,67.809z" opacity=".5"/><path fill="#E86130" d="M70.074,67.809c8.63-6.589,21.104-19.013,27.72-27.607c6.617-8.594,20.249-12.232,30.293-8.084 c10.045,4.148,27.085,8.696,37.867,10.105c10.782,1.409,20.761,11.348,22.177,22.086c1.415,10.738,5.981,27.708,10.146,37.712 c4.165,10.004,0.512,23.58-8.117,30.169c-8.63,6.589-21.104,19.013-27.72,27.607c-6.617,8.594-20.249,12.232-30.293,8.084 c-10.045-4.148-27.085-8.696-37.867-10.105c-10.782-1.409-20.761-11.348-22.176-22.086c-1.415-10.738-5.981-27.708-10.146-37.712 C57.791,87.975,61.444,74.399,70.074,67.809z"/></g></svg>